<svg width="24" height="14" viewBox="0 0 24 14" fill="none" xmlns="http://www.w3.org/2000/svg">
<path d="M0 13.7761C0.163636 11.8307 0.759273 10.0398 1.78691 8.40341C2.81455 6.76705 4.18255 5.46705 5.89091 4.50341L3.87273 1.0125C3.76364 0.848864 3.73636 0.676136 3.79091 0.494318C3.84545 0.3125 3.96364 0.176136 4.14545 0.0852271C4.29091 -0.00568203 4.45455 -0.0238635 4.63636 0.0306819C4.81818 0.0852274 4.96364 0.194318 5.07273 0.357954L7.09091 3.84886C8.65455 3.19432 10.2909 2.86705 12 2.86705C13.7091 2.86705 15.3455 3.19432 16.9091 3.84886L18.9273 0.357954C19.0364 0.194318 19.1818 0.0852274 19.3636 0.0306819C19.5455 -0.0238635 19.7091 -0.00568203 19.8545 0.0852271C20.0364 0.176136 20.1545 0.3125 20.2091 0.494318C20.2636 0.676136 20.2364 0.848864 20.1273 1.0125L18.1091 4.50341C19.8182 5.46705 21.1862 6.76705 22.2131 8.40341C23.24 10.0398 23.8356 11.8307 24 13.7761H0ZM6.54545 10.7761C6.92727 10.7761 7.25018 10.6441 7.51418 10.3801C7.77818 10.1161 7.90982 9.79359 7.90909 9.4125C7.90836 9.03141 7.77636 8.7085 7.51309 8.44377C7.24982 8.17905 6.92727 8.04741 6.54545 8.04886C6.16364 8.05032 5.84073 8.18232 5.57673 8.44486C5.31273 8.70741 5.18109 9.02996 5.18182 9.4125C5.18255 9.79505 5.31455 10.118 5.57782 10.3812C5.84109 10.6445 6.16364 10.7761 6.54545 10.7761ZM17.4545 10.7761C17.8364 10.7761 18.1593 10.6441 18.4233 10.3801C18.6873 10.1161 18.8189 9.79359 18.8182 9.4125C18.8175 9.03141 18.6855 8.7085 18.4222 8.44377C18.1589 8.17905 17.8364 8.04741 17.4545 8.04886C17.0727 8.05032 16.7498 8.18232 16.4858 8.44486C16.2218 8.70741 16.0902 9.02996 16.0909 9.4125C16.0916 9.79505 16.2236 10.118 16.4869 10.3812C16.7502 10.6445 17.0727 10.7761 17.4545 10.7761Z" fill="black"/>
</svg>
