<svg width="24" height="15" viewBox="0 0 24 15" fill="none" xmlns="http://www.w3.org/2000/svg">
<path d="M0 3V0H3V3H0ZM0 15V6H3V15H0ZM10.5 15H7.5C6.675 15 5.969 14.7065 5.382 14.1195C4.795 13.5325 4.501 12.826 4.5 12V3C4.5 2.175 4.794 1.469 5.382 0.882C5.97 0.295 6.676 0.001 7.5 0H10.5C11.325 0 12.0315 0.294 12.6195 0.882C13.2075 1.47 13.501 2.176 13.5 3V12C13.5 12.825 13.2065 13.5315 12.6195 14.1195C12.0325 14.7075 11.326 15.001 10.5 15ZM7.5 12H10.5V3H7.5V12ZM15 15V12H21V9H18C17.175 9 16.469 8.7065 15.882 8.1195C15.295 7.5325 15.001 6.826 15 6V3C15 2.175 15.294 1.469 15.882 0.882C16.47 0.295 17.176 0.001 18 0H24V3H18V6H21C21.825 6 22.5315 6.294 23.1195 6.882C23.7075 7.47 24.001 8.176 24 9V12C24 12.825 23.7065 13.5315 23.1195 14.1195C22.5325 14.7075 21.826 15.001 21 15H15Z" fill="black"/>
</svg>
