<svg width="24" height="19" viewBox="0 0 24 19" fill="none" xmlns="http://www.w3.org/2000/svg">
<path d="M23.7873 14.1805C23.3182 14.7723 22.1695 15.1941 22.1695 15.1941L13.6255 18.2643V15.9995L19.9135 13.7576C20.627 13.5026 20.736 13.1408 20.1568 12.9511C19.5775 12.7604 18.5291 12.8149 17.8146 13.0721L13.6255 14.5478V12.1991L13.8666 12.1163C13.8666 12.1163 15.0775 11.6879 16.7793 11.4994C18.4822 11.3119 20.567 11.5256 22.2033 12.1457C24.047 12.7288 24.2542 13.5887 23.7873 14.1805ZM14.4382 10.3245V4.53611C14.4382 3.85602 14.3128 3.23043 13.6746 3.05386C13.1869 2.89692 12.8837 3.35031 12.8837 4.02931V18.5281L8.97491 17.2867V0C10.6364 0.308438 13.0582 1.03866 14.3597 1.4768C17.6706 2.61355 18.7931 4.02931 18.7931 7.21723C18.7931 10.3245 16.8753 11.5027 14.4382 10.3256M1.80216 15.7641C-0.0916624 15.2301 -0.406936 14.1184 0.455976 13.4786C1.25343 12.8879 2.61053 12.4432 2.61053 12.4432L8.21564 10.4487V12.7223L4.18144 14.1664C3.46908 14.4214 3.35999 14.7832 3.93817 14.9729C4.51854 15.1636 5.5669 15.1091 6.28036 14.853L8.21564 14.1511V16.1837L7.82946 16.2491C5.89418 16.5652 3.83344 16.4333 1.80216 15.7641Z" fill="black"/>
</svg>
