<svg width="24" height="24" viewBox="0 0 24 24" fill="none" xmlns="http://www.w3.org/2000/svg">
<path d="M3.58037 3.45163L3.56946 3.46145C2.43695 4.57608 1.53798 5.90528 0.925106 7.37136C0.312228 8.83743 -0.00226378 10.411 1.22663e-05 12C1.22663e-05 14.6258 0.858557 17.1807 2.45237 19.2676C2.46874 19.2883 2.49383 19.3003 2.51783 19.2883C2.53965 19.2752 2.53965 19.2491 2.53092 19.2262C1.61674 16.3974 6.29237 9.54217 8.70873 6.66763C8.71435 6.66368 8.71896 6.65846 8.72218 6.65239C8.7254 6.64633 8.72715 6.63959 8.72727 6.63272C8.72727 6.61636 8.71637 6.60327 8.70546 6.59345C4.64073 2.54836 3.55637 3.47345 3.57055 3.46036M20.4218 3.45054L20.4327 3.46145C21.5648 4.57627 22.4634 5.90555 23.0759 7.37161C23.6884 8.83768 24.0025 10.4111 24 12C24 14.6269 23.1414 17.1818 21.5476 19.2687C21.5324 19.2883 21.5062 19.3003 21.4822 19.2883C21.4625 19.2763 21.4604 19.2502 21.4691 19.2273C22.3833 16.3985 17.7109 9.53781 15.2956 6.66217C15.284 6.65199 15.2782 6.64108 15.2782 6.62945C15.2782 6.6109 15.2891 6.59781 15.3011 6.58799C19.3669 2.54291 20.4447 3.47454 20.4305 3.46145M12 0C14.4218 0 16.4138 0.663272 18.2509 1.75636C18.2738 1.76727 18.2804 1.79236 18.2727 1.81527C18.2618 1.83709 18.2378 1.84254 18.2138 1.836C15.8913 1.33418 12.36 3.34145 12.0262 3.54109C12.0153 3.54654 12.0109 3.552 12.0011 3.552C11.9902 3.552 11.9825 3.54545 11.9749 3.54109C11.0891 3.03272 7.82509 1.32218 5.76982 1.848C5.74691 1.85345 5.72182 1.84909 5.71201 1.82618C5.7011 1.80436 5.71201 1.77927 5.73273 1.76727C7.56982 0.663272 9.588 0 12.0022 0M12.0022 9.62399C12.0164 9.62399 12.0316 9.6349 12.0404 9.64253C15.6316 12.3731 21.7778 19.1225 19.9014 21.0316C17.7169 22.948 14.9092 24.0032 12.0033 24C9.09655 24.0037 6.288 22.9485 4.10292 21.0316C2.22983 19.1225 8.37491 12.3731 11.9629 9.64253C11.9738 9.6349 11.9891 9.62399 12.0044 9.62399" fill="black"/>
</svg>
