<svg width="280" height="188" viewBox="0 0 280 188" fill="none" xmlns="http://www.w3.org/2000/svg">
<rect x="146" y="92" width="8" height="24" rx="3" transform="rotate(90 146 92)" fill="#22c55e
"/>
<rect x="157" y="108" width="8" height="24" rx="3" transform="rotate(90 157 108)" fill="#22c55e
"/>
<rect x="41.5" y="79" width="9" height="48" rx="4.5" fill="#22c55e
"/>
<rect x="70" y="98.5" width="9" height="48" rx="4.5" transform="rotate(90 70 98.5)" fill="#22c55e
"/>
<ellipse cx="94.4643" cy="154" rx="13.4643" ry="13" fill="#22c55e
"/>
<circle cx="185.286" cy="154" r="13" fill="#22c55e
"/>
<path d="M147 45V35.7568C147 30.7862 151.029 26.7568 156 26.7568H169C173.971 26.7568 178 22.7273 178 17.7568V16.2973C178 11.3267 173.971 7.2973 169 7.2973H156.02C151.989 7.2973 148.722 4.03019 148.722 0M17 187H263C271.837 187 279 179.837 279 171V61C279 52.1634 271.837 45 263 45H17C8.16344 45 1 52.1634 1 61V171C1 179.837 8.16344 187 17 187Z" stroke="#22c55e
" stroke-width="4"/>
<circle cx="229.5" cy="75.5" r="6.5" stroke="#F1FF51" stroke-width="2"/>
<circle cx="229.5" cy="129.5" r="6.5" stroke="#50FF40" stroke-width="2"/>
<circle cx="202.5" cy="102.5" r="7.5" transform="rotate(-90 202.5 102.5)" fill="#F90000"/>
<circle cx="256.5" cy="102.5" r="7.5" transform="rotate(-90 256.5 102.5)" fill="#3f3cbb"/>
</svg>
